<?xml version="1.0" encoding="UTF-8" standalone="no"?>
<svg xmlns:dc="http://purl.org/dc/elements/1.1/" xmlns:cc="http://creativecommons.org/ns#" xmlns:rdf="http://www.w3.org/1999/02/22-rdf-syntax-ns#" xmlns:svg="http://www.w3.org/2000/svg" xmlns="http://www.w3.org/2000/svg" xmlns:sodipodi="http://sodipodi.sourceforge.net/DTD/sodipodi-0.dtd" xmlns:inkscape="http://www.inkscape.org/namespaces/inkscape" inkscape:version="1.0 (4035a4fb49, 2020-05-01)" height="46.519295" width="400.00003" sodipodi:docname="Just Eat Takeaway.com Logo 6.2020.svg" id="svg61" xml:space="preserve" viewBox="0 0 400.00002 46.519295" y="0px" x="0px" version="1.1">
   <metadata id="metadata67">
      <rdf:RDF>
         <cc:Work rdf:about="">
            <dc:format>image/svg+xml</dc:format>
            <dc:type rdf:resource="http://purl.org/dc/dcmitype/StillImage" />
            <dc:title></dc:title>
         </cc:Work>
      </rdf:RDF>
   </metadata>
   <defs id="defs65"></defs>
   <sodipodi:namedview inkscape:current-layer="svg61" inkscape:window-maximized="1" inkscape:window-y="-8" inkscape:window-x="-8" inkscape:cy="29.957885" inkscape:cx="257.59583" inkscape:zoom="1.614345" fit-margin-bottom="0" fit-margin-right="0" fit-margin-left="0" fit-margin-top="0" showgrid="false" id="namedview63" inkscape:window-height="837" inkscape:window-width="1600" inkscape:pageshadow="2" inkscape:pageopacity="0" guidetolerance="10" gridtolerance="10" objecttolerance="10" borderopacity="1" bordercolor="#666666" pagecolor="#ffffff" />
   <style id="style2" type="text/css">
	.st0{display:none;fill:#EF7E19;}
	.st1{fill:#FF8000;}
	.st2{fill:#FFFFFF;}
	.st3{display:none;}
	.st4{display:inline;opacity:0.5;fill:#446CB2;}
</style>
   <path style="stroke-width:0.776396 fill:#FF8000;" id="House_1_" d="m 46.165162,22.599262 c -1.5295,-2.554343 -3.21428,-5.01552 -5.054339,-7.360236 l -0.04658,-0.06211 -0.01553,-0.01553 c -0.09317,-0.116459 -0.33385,-0.41149 -0.419254,-0.527949 C 39.790951,13.48437 38.804928,4.2840743 38.688468,3.6086103 c -0.139751,-0.799689 -0.364906,-1.630433 -1.521736,-1.754656 -0.93944,-0.100932 -2.329189,-0.256211 -3.866454,-0.33385 -0.714284,-0.03882 -1.079191,0.349378 -1.265526,0.698756 -0.131987,0.240683 -0.186335,0.512422 -0.186335,0.78416 -0.02329,1.180123 0.0078,1.754656 0.0078,1.902171 0,0.01553 0,0.03106 -0.0078,0.04658 -0.01553,0.0854 -0.06211,0.147515 -0.124223,0.201863 -0.131988,0.108696 -0.326087,0.100932 -0.465838,-0.0078 -0.729812,-0.551241 -4.52639,-3.439435 -6.630424,-4.73601705 -0.100932,-0.05435 -0.201863,-0.108696 -0.302795,-0.155279 -0.768632,-0.341615 -1.661488,-0.357143 -2.3913,0.06211 -0.05435,0.03106 -0.100932,0.06211 -0.147515,0.09317 C 21.095329,0.84460025 9.2552858,7.5681923 0.29567279,22.521584 c 0,0 -0.559006,0.78416 -0.139752,1.513972 0.403727,0.838508 4.31676401,1.079191 4.94564501,1.149067 0.70652,0.07764 0.698756,0.652173 0.698756,0.652173 0.06988,6.141294 0.178571,9.114892 1.180123,19.526366 0,0 0.163043,1.086955 1.23447,1.141302 0.434782,0.02329 2.0496862,-0.06987 6.3431572,-0.170807 0.163043,0.01553 0.310559,-0.100931 0.326087,-0.263974 0,-0.02329 0,-0.04658 0,-0.07764 -0.41149,-4.246888 -0.543478,-7.927006 -0.551242,-8.136633 -0.0078,-0.155279 -0.147515,-0.380434 -0.287266,-0.434782 -1.583849,-0.908384 -2.523288,-2.492232 -2.538816,-4.316763 -0.11646,-8.408372 0.395962,-14.867989 0.395962,-14.867989 0,0 0.04658,-0.892855 0.838508,-0.82298 0.78416,0.06988 0.737576,0.954968 0.737576,0.954968 -0.279502,3.62577 -0.388198,10.155263 -0.388198,10.155263 0,0 0,1.242234 1.187887,1.242234 1.187886,0 1.187886,-1.242234 1.187886,-1.242234 -0.03882,-5.108688 0.395962,-10.248431 0.395962,-10.248431 0,0 0,-0.869564 0.838508,-0.869564 0.458074,0 0.628881,0.310559 0.698757,0.56677 0.03882,0.131987 0.04658,0.271738 0.03106,0.41149 -0.349378,4.425458 -0.388198,10.131971 -0.388198,10.131971 0,0 0,1.242234 1.187887,1.242234 1.187886,0 1.187886,-1.343166 1.187886,-1.343166 -0.02329,-4.239123 0.395962,-10.131971 0.395962,-10.131971 0.03882,-0.458074 0.263975,-0.8618 0.830744,-0.8618 0.698757,0.02329 0.753104,0.690993 0.737576,0.8618 -0.37267,4.596266 -0.380434,11.645944 -0.364906,14.666126 0.05435,1.816767 -0.869564,3.524839 -2.414592,4.472042 -0.139751,0.09317 -0.217391,0.263975 -0.201863,0.434782 0.100931,2.795027 0.33385,5.900612 0.535713,8.121105 0.0078,0.147515 0.124224,0.271739 0.271739,0.287267 1.187886,0 3.470491,-0.01553 4.89906,-0.01553 2.298133,0 3.214281,0.01553 4.899061,0.03882 0.186335,0 0.279503,-0.139752 0.29503,-0.333851 0.434782,-4.021733 0.590062,-6.940983 0.60559,-7.197193 0.02329,-0.287267 -0.326087,-0.341615 -0.326087,-0.341615 -0.527949,-0.06987 -1.762419,-0.217391 -2.810554,-0.388198 -1.048135,-0.170807 -1.086955,-1.366457 -1.086955,-1.366457 -0.885092,-12.554328 5.737568,-20.380402 5.737568,-20.380402 0,0 0.659937,-0.869564 1.576085,-0.52795 0.807452,0.302795 1.017079,2.62422 1.032607,2.763971 0.885091,10.395946 -0.11646,22.515492 -0.690993,27.461136 -0.02329,0.201863 0.06988,0.364906 0.256211,0.403726 0.225155,0.03882 4.208068,0.170807 4.572974,0.131987 0.644409,-0.06988 1.164594,-0.559005 1.265526,-1.203414 1.413041,-9.728245 1.19565,-19.479782 1.19565,-19.479782 0.03106,-0.349379 0.302795,-0.621117 0.652173,-0.652173 l 3.812106,-0.41149 c 0.496893,-0.06988 0.923911,-0.271739 1.149066,-0.698757 0.201863,-0.465837 0.186335,-1.024843 -0.07764,-1.467389" />
  </svg>
